<svg width="64" height="64" viewBox="0 0 64 64" fill="none" xmlns="http://www.w3.org/2000/svg">
<circle cx="32" cy="32" r="29" fill="#F5BCD4" stroke="white" stroke-width="6"/>
<g clip-path="url(#clip0)">
<path d="M43.4959 31.7712C43.5052 31.7632 43.5142 31.7548 43.5234 31.7467C43.5578 31.7164 43.592 31.6858 43.626 31.6549C43.6413 31.6409 43.6561 31.6267 43.6714 31.6125C43.6989 31.5869 43.7266 31.5613 43.7539 31.5351C43.7969 31.4943 43.8391 31.4528 43.881 31.411C46.944 28.348 46.944 23.3641 43.881 20.301C42.397 18.8173 40.4243 18 38.3258 18C36.2273 18 34.2546 18.8173 32.7708 20.301C32.6072 20.4647 32.4502 20.6369 32.3012 20.8149C30.5347 20.1583 28.5028 20.3464 26.8616 21.4451C26.6722 21.572 26.6215 21.8285 26.7483 22.0179C26.8752 22.2073 27.1315 22.2581 27.3209 22.1312C29.3685 20.7605 32.1214 21.0323 33.8669 22.7777C33.9475 22.8584 34.0531 22.8986 34.1589 22.8986C34.2645 22.8986 34.37 22.8584 34.4507 22.7777C34.6119 22.6165 34.6119 22.355 34.4507 22.194C34.0383 21.7814 33.5764 21.4412 33.0836 21.1723C33.1716 21.074 33.2616 20.9777 33.3547 20.8848C34.6824 19.5569 36.4479 18.8256 38.3258 18.8256C40.2037 18.8256 41.9691 19.5569 43.297 20.8848C46.0382 23.626 46.0382 28.0861 43.297 30.8273C43.2487 30.8757 43.199 30.9234 43.1491 30.9705C43.1371 30.9819 43.125 30.9931 43.113 31.0042C43.0698 31.0445 43.0259 31.0844 42.9816 31.1236C42.9743 31.1302 42.967 31.1369 42.9595 31.1434C42.8509 31.2386 42.7397 31.3304 42.6264 31.4181C42.1691 31.7731 41.6716 32.069 41.1392 32.301C40.9302 32.3921 40.8347 32.6355 40.9259 32.8445C40.9936 32.9998 41.1452 33.0924 41.3045 33.0924C41.3596 33.0924 41.4157 33.0812 41.4694 33.0578C41.8911 32.874 42.2932 32.654 42.6735 32.4007C43.2687 34.2434 42.7961 36.255 41.4041 37.6472C39.8889 39.1622 37.6395 39.589 35.6734 38.7345C35.6627 38.7298 35.6517 38.7272 35.6407 38.7233C35.0563 38.4651 34.5283 38.1035 34.072 37.647C33.9108 37.4859 33.6493 37.4859 33.4883 37.647C33.3268 37.8082 33.3268 38.0697 33.4881 38.231C33.8961 38.639 34.3537 38.9818 34.8529 39.2548C34.7659 39.3522 34.6764 39.4477 34.5842 39.5399C33.2563 40.8678 31.4908 41.5991 29.6129 41.5991C27.735 41.5991 25.9696 40.8678 24.6417 39.5399C23.3138 38.212 22.5825 36.4466 22.5825 34.5687C22.5825 32.6908 23.3138 30.9253 24.6417 29.5974C24.855 29.3841 25.0835 29.1831 25.3211 28.9995C25.3215 28.9993 25.3217 28.9991 25.322 28.9988C25.7767 28.6473 26.2738 28.353 26.7995 28.1238C27.0085 28.0326 27.104 27.7892 27.0128 27.5802C26.9216 27.3712 26.6785 27.2758 26.4693 27.3669C26.0489 27.5503 25.6451 27.7716 25.263 28.0261C24.7238 26.3329 25.0917 24.4393 26.2577 23.0768C26.4058 22.9037 26.3856 22.6431 26.2123 22.4948C26.0392 22.3466 25.7786 22.3669 25.6303 22.5399C24.2166 24.1919 23.8152 26.5172 24.5696 28.5458C24.3927 28.6944 24.2211 28.8507 24.0579 29.0137C22.5741 30.4975 21.7569 32.4704 21.7569 34.5687C21.7569 35.948 22.1099 37.2729 22.7732 38.4402L18.6147 42.5987C18.2185 42.9952 18 43.5224 18 44.0829C18 44.6436 18.2185 45.1706 18.6147 45.5671C19.0112 45.9634 19.5382 46.1818 20.0989 46.1818C20.6595 46.1818 21.1867 45.9636 21.5831 45.5671L25.7417 41.4086C26.909 42.0717 28.2338 42.4247 29.6131 42.4247C31.7114 42.4247 33.6844 41.6077 35.1681 40.1239C35.332 39.9601 35.4894 39.7881 35.6384 39.6105C36.6513 39.9889 37.7431 40.0869 38.8158 39.893C40.0216 39.6752 41.1186 39.1005 41.9881 38.231C42.8576 37.3615 43.4323 36.2645 43.6503 35.0587C43.844 33.986 43.746 32.8942 43.3676 31.8813C43.3732 31.8765 43.3785 31.8716 43.3843 31.8669C43.4217 31.8353 43.4589 31.8037 43.4959 31.7712ZM20.9992 44.9834C20.7588 45.2237 20.4391 45.3562 20.0989 45.3562C19.7588 45.3562 19.4391 45.2237 19.1987 44.9834C18.9581 44.7428 18.8256 44.423 18.8256 44.0829C18.8256 43.7427 18.9581 43.423 19.1987 43.1826L23.2303 39.151C23.4774 39.4937 23.7535 39.8192 24.0581 40.1239C24.3626 40.4284 24.6883 40.7044 25.0308 40.9517L20.9992 44.9834Z" fill="white"/>
<path d="M31.4246 26.3097C31.2042 26.2502 30.9778 26.3807 30.9185 26.6006C30.789 27.0801 30.9266 27.5961 31.2775 27.947C31.5411 28.2106 31.8978 28.3538 32.2625 28.3538C32.3831 28.3538 32.5046 28.3381 32.6237 28.3059C32.8439 28.2465 32.9739 28.0199 32.9146 27.7997C32.8553 27.5796 32.6284 27.4493 32.4085 27.5088C32.2135 27.5615 32.0038 27.5056 31.8613 27.363C31.7189 27.2207 31.663 27.0109 31.7157 26.8158C31.775 26.5957 31.6448 26.3691 31.4246 26.3097Z" fill="white"/>
<path d="M36.3821 31.2674C36.1619 31.2081 35.9353 31.3384 35.876 31.5583C35.7465 32.0378 35.8841 32.5536 36.235 32.9047C36.4986 33.1683 36.8553 33.3115 37.22 33.3115C37.3406 33.3115 37.4619 33.2958 37.5812 33.2638C37.8012 33.2045 37.9315 32.9778 37.8721 32.7577C37.8128 32.5375 37.5864 32.4074 37.366 32.4665C37.1712 32.5192 36.9614 32.4633 36.819 32.3208C36.6762 32.1782 36.6206 31.9686 36.6732 31.7736C36.7324 31.5534 36.6023 31.3268 36.3821 31.2674Z" fill="white"/>
<path d="M33.6554 29.1881C33.4941 29.0268 33.2326 29.0268 33.0714 29.1881L32.5693 29.6901C32.0393 30.2201 32.0393 31.0825 32.5696 31.6127C32.8263 31.8695 33.1677 32.0109 33.5307 32.0109C33.894 32.0109 34.2352 31.8695 34.4922 31.6127L34.9942 31.1107C35.0716 31.0333 35.1151 30.9281 35.1151 30.8187C35.1151 30.7093 35.0716 30.6041 34.9942 30.5269L33.6554 29.1881ZM33.9082 31.0288C33.8074 31.1296 33.6732 31.1853 33.5307 31.1853C33.3881 31.1853 33.2542 31.1296 33.1533 31.0288C32.9452 30.8206 32.9452 30.482 33.1533 30.2739L33.3634 30.0638L34.1185 30.8187L33.9082 31.0288Z" fill="white"/>
<path d="M35.1312 32.9826C34.9699 33.1438 34.9699 33.4053 35.1312 33.5665L35.573 34.0084C35.6537 34.089 35.7595 34.1294 35.865 34.1294C35.9706 34.1294 36.0764 34.089 36.157 34.0086C36.3183 33.8473 36.3183 33.5859 36.157 33.4246L35.7152 32.9826C35.5537 32.8215 35.2925 32.8215 35.1312 32.9826Z" fill="white"/>
<path d="M30.1737 28.0251C30.0124 28.1861 30.0124 28.4476 30.1737 28.6088L30.6155 29.0507C30.6962 29.1313 30.8017 29.1717 30.9075 29.1717C31.0131 29.1717 31.1189 29.1313 31.1993 29.0507C31.3605 28.8894 31.3605 28.6282 31.1993 28.4669L30.7574 28.0251C30.5962 27.8638 30.3349 27.8638 30.1737 28.0251Z" fill="white"/>
</g>
<defs>
<clipPath id="clip0">
<rect width="28.1818" height="28.1818" fill="white" transform="translate(18 18)"/>
</clipPath>
</defs>
</svg>
